<svg width="900" viewBox="0 0 680 1400" xmlns="http://www.w3.org/2000/svg" role="img" style="background:#1a1a2e;font-family:ui-sans-serif,system-ui,sans-serif">
<title>WebLibraryProject — Planned System Architecture</title>
<desc>Full planned architecture showing WebLibrary MVC solution with all five projects, AgenticApi pipeline, external services, background jobs and CI/CD</desc>
<defs>
  <marker id="arrow" viewBox="0 0 10 10" refX="8" refY="5" markerWidth="6" markerHeight="6" orient="auto-start-reverse">
    <path d="M2 1L8 5L2 9" fill="none" stroke="#94a3b8" stroke-width="1.5" stroke-linecap="round" stroke-linejoin="round"/>
  </marker>
  <style>
    .label-lg { font-size:15px; font-weight:700; fill:#f1f5f9; }
    .label-md { font-size:12px; font-weight:600; fill:#f1f5f9; }
    .label-sm { font-size:11px; font-weight:400; fill:#94a3b8; }
    .label-xs { font-size:10px; font-weight:400; fill:#64748b; }
    .zone-border { fill:none; stroke:#334155; stroke-width:0.8; stroke-dasharray:5 3; }
    .mw-border  { fill:none; stroke:#64748b; stroke-width:1.2; }
    .arr { fill:none; stroke:#64748b; stroke-width:0.8; }
    .arr-main { fill:none; stroke:#94a3b8; stroke-width:1; }
    /* box fills */
    .b-teal   { fill:#0f3a35; stroke:#1D9E75; stroke-width:0.8; }
    .b-purple { fill:#1e1b4b; stroke:#7c3aed; stroke-width:0.8; }
    .b-amber  { fill:#3b2400; stroke:#d97706; stroke-width:0.8; }
    .b-coral  { fill:#3b0d0d; stroke:#ef4444; stroke-width:0.8; }
    .b-gray   { fill:#1e293b; stroke:#475569; stroke-width:0.8; }
    .b-blue   { fill:#0c1a3b; stroke:#3b82f6; stroke-width:0.8; }
  </style>
</defs>

<!-- ══ TITLE ════════════════════════════════════════════════ -->
<text class="label-lg" x="340" y="28" text-anchor="middle">WebLibraryProject — planned system architecture</text>
<text class="label-xs" x="340" y="46" text-anchor="middle">not yet fully implemented · for architecture reference only</text>

<!-- ══ LEGEND ═══════════════════════════════════════════════ -->
<rect x="40"  y="54" width="10" height="10" rx="2" class="b-teal"/>
<text class="label-xs" x="55"  y="64">MVC layer</text>
<rect x="130" y="54" width="10" height="10" rx="2" class="b-purple"/>
<text class="label-xs" x="145" y="64">API layer</text>
<rect x="210" y="54" width="10" height="10" rx="2" class="b-amber"/>
<text class="label-xs" x="225" y="64">Agents</text>
<rect x="285" y="54" width="10" height="10" rx="2" class="b-coral"/>
<text class="label-xs" x="300" y="64">External</text>
<rect x="365" y="54" width="10" height="10" rx="2" class="b-gray"/>
<text class="label-xs" x="380" y="64">Infrastructure</text>
<rect x="468" y="54" width="10" height="10" rx="2" class="b-blue"/>
<text class="label-xs" x="483" y="64">CI/CD · Deploy</text>

<!-- ══ ZONE 1 — SOLUTION ════════════════════════════════════ -->
<rect x="40" y="76" width="600" height="230" rx="10" class="zone-border"/>
<text class="label-xs" x="54" y="92">Solution — WebLibraryProject (5 projects)</text>

<rect x="54"  y="100" width="134" height="54" rx="6" class="b-teal"/>
<text class="label-md" x="121" y="122" text-anchor="middle">WebLibrary</text>
<text class="label-sm" x="121" y="138" text-anchor="middle">MVC · controllers</text>
<text class="label-sm" x="121" y="150" text-anchor="middle">views · wwwroot</text>

<rect x="204" y="100" width="156" height="54" rx="6" class="b-purple"/>
<text class="label-md" x="282" y="118" text-anchor="middle">WebLibrary</text>
<text class="label-md" x="282" y="134" text-anchor="middle">.AgenticApi</text>
<text class="label-sm" x="282" y="150" text-anchor="middle">REST API · agents · services</text>

<rect x="376" y="100" width="252" height="54" rx="6" class="b-gray"/>
<text class="label-md" x="502" y="118" text-anchor="middle">WebLibrary.DataAccess</text>
<text class="label-sm" x="502" y="134" text-anchor="middle">EF Core · DbContext</text>
<text class="label-sm" x="502" y="150" text-anchor="middle">Repository · Unit of Work</text>

<rect x="54"  y="168" width="156" height="54" rx="6" class="b-gray"/>
<text class="label-md" x="132" y="188" text-anchor="middle">Weblibrary.Models</text>
<text class="label-sm" x="132" y="206" text-anchor="middle">domain entities</text>
<text class="label-sm" x="132" y="218" text-anchor="middle">shared contracts</text>

<rect x="226" y="168" width="156" height="54" rx="6" class="b-gray"/>
<text class="label-md" x="304" y="188" text-anchor="middle">WebLibrary.Utilities</text>
<text class="label-sm" x="304" y="206" text-anchor="middle">shared helpers</text>
<text class="label-sm" x="304" y="218" text-anchor="middle">SD.cs · constants</text>

<rect x="398" y="168" width="230" height="54" rx="6" class="b-gray"/>
<text class="label-md" x="513" y="188" text-anchor="middle">SQL Server + EF Core</text>
<text class="label-sm" x="513" y="206" text-anchor="middle">Products · Orders · PlagiarismLog</text>
<text class="label-sm" x="513" y="218" text-anchor="middle">owned by WebLibrary only</text>

<!-- Arrow Solution → MVC detail -->
<line x1="340" y1="306" x2="340" y2="336" class="arr-main" marker-end="url(#arrow)"/>
<text class="label-xs" x="360" y="323">POST /api/productanalysis/analyze-pdf</text>

<!-- ══ ZONE 2 — WebLibrary MVC detail ═══════════════════════ -->
<rect x="40" y="338" width="600" height="120" rx="10" class="zone-border"/>
<text class="label-xs" x="54" y="354">WebLibrary — MVC layer detail</text>

<rect x="54"  y="362" width="130" height="84" rx="6" class="b-teal"/>
<text class="label-md" x="119" y="386" text-anchor="middle">Product</text>
<text class="label-md" x="119" y="404" text-anchor="middle">Controller</text>
<text class="label-sm" x="119" y="420" text-anchor="middle">PDF upload</text>
<text class="label-sm" x="119" y="436" text-anchor="middle">form pre-fill</text>

<rect x="198" y="362" width="130" height="84" rx="6" class="b-teal"/>
<text class="label-md" x="263" y="386" text-anchor="middle">AI Search</text>
<text class="label-md" x="263" y="404" text-anchor="middle">Controller</text>
<text class="label-sm" x="263" y="420" text-anchor="middle">natural language</text>
<text class="label-sm" x="263" y="436" text-anchor="middle">book search UI</text>

<rect x="342" y="362" width="130" height="84" rx="6" class="b-teal"/>
<text class="label-md" x="407" y="386" text-anchor="middle">Admin</text>
<text class="label-md" x="407" y="404" text-anchor="middle">Controller</text>
<text class="label-sm" x="407" y="420" text-anchor="middle">cover accept</text>
<text class="label-sm" x="407" y="436" text-anchor="middle">reject · manage</text>

<rect x="486" y="362" width="142" height="84" rx="6" class="b-gray"/>
<text class="label-md" x="557" y="382" text-anchor="middle">Internal API</text>
<text class="label-sm" x="557" y="400" text-anchor="middle">/internal/products/</text>
<text class="label-sm" x="557" y="416" text-anchor="middle">search-context</text>
<text class="label-sm" x="557" y="432" text-anchor="middle">sales-summary</text>

<!-- Arrow MVC → AgenticApi -->
<line x1="340" y1="458" x2="340" y2="492" class="arr-main" marker-end="url(#arrow)"/>
<text class="label-xs" x="360" y="477">HTTP · X-Api-Key header [planned]</text>

<!-- ══ ZONE 3 — WebLibrary.AgenticApi ══════════════════════ -->
<!-- Middleware outer border -->
<rect x="40" y="494" width="600" height="530" rx="10" class="mw-border"/>
<!-- Middleware label on top border -->
<rect x="160" y="486" width="360" height="18" rx="4" fill="#1a1a2e"/>
<text class="label-xs" x="340" y="498" text-anchor="middle">middleware — RequestLoggingMiddleware · GlobalErrorMiddleware · ApiKeyMiddleware [planned]</text>
<!-- Middleware label on bottom border -->
<rect x="196" y="1016" width="288" height="16" rx="4" fill="#1a1a2e"/>
<text class="label-xs" x="340" y="1028" text-anchor="middle">every response passes back through middleware</text>

<text class="label-xs" x="56" y="514">WebLibrary.AgenticApi — internal pipeline</text>

<!-- Controller -->
<rect x="180" y="520" width="320" height="40" rx="6" class="b-purple"/>
<text class="label-md" x="340" y="545" text-anchor="middle">ProductAnalysisController</text>
<line x1="340" y1="560" x2="340" y2="580" class="arr" marker-end="url(#arrow)"/>

<!-- Workflow -->
<rect x="140" y="580" width="400" height="40" rx="6" class="b-purple"/>
<text class="label-md" x="340" y="605" text-anchor="middle">BookMetadataWorkflow</text>
<line x1="340" y1="620" x2="340" y2="644" class="arr" marker-end="url(#arrow)"/>

<!-- Step 1 sequential -->
<rect x="56" y="644" width="568" height="66" rx="6" class="zone-border"/>
<text class="label-xs" x="64" y="658">step 1 — sequential</text>

<rect x="64"  y="662" width="162" height="38" rx="5" class="b-gray"/>
<text class="label-md" x="145" y="677" text-anchor="middle">BlobFetcherService</text>
<text class="label-sm" x="145" y="693" text-anchor="middle">fetch PDF from blob</text>
<line x1="226" y1="681" x2="248" y2="681" class="arr" marker-end="url(#arrow)"/>

<rect x="250" y="662" width="162" height="38" rx="5" class="b-gray"/>
<text class="label-md" x="331" y="677" text-anchor="middle">PdfExtractorService</text>
<text class="label-sm" x="331" y="693" text-anchor="middle">text · max 100 pages</text>
<line x1="412" y1="681" x2="434" y2="681" class="arr" marker-end="url(#arrow)"/>

<rect x="436" y="662" width="176" height="38" rx="5" class="b-gray"/>
<text class="label-md" x="524" y="677" text-anchor="middle">GuardrailService</text>
<text class="label-sm" x="524" y="693" text-anchor="middle">validate input text</text>
<line x1="340" y1="710" x2="340" y2="730" class="arr" marker-end="url(#arrow)"/>

<!-- Step 2 parallel -->
<rect x="56" y="730" width="568" height="128" rx="6" class="zone-border"/>
<text class="label-xs" x="64" y="744">step 2 — concurrent (Task.WhenAll)</text>

<rect x="64"  y="750" width="172" height="98" rx="6" class="b-amber"/>
<text class="label-md" x="150" y="772" text-anchor="middle">Metadata</text>
<text class="label-md" x="150" y="790" text-anchor="middle">ExtractorAgent</text>
<text class="label-sm" x="150" y="808" text-anchor="middle">title · author · desc</text>
<text class="label-sm" x="150" y="824" text-anchor="middle">Gemini 2.0 Flash</text>
<text class="label-sm" x="150" y="840" text-anchor="middle">confidence scored</text>

<rect x="254" y="750" width="172" height="98" rx="6" class="b-amber"/>
<text class="label-md" x="340" y="772" text-anchor="middle">Plagiarism</text>
<text class="label-md" x="340" y="790" text-anchor="middle">CheckFunction</text>
<text class="label-sm" x="340" y="808" text-anchor="middle">Pinecone similarity</text>
<text class="label-sm" x="340" y="824" text-anchor="middle">score ≥ 0.85 → flag</text>
<text class="label-sm" x="340" y="840" text-anchor="middle">no LLM call</text>

<rect x="444" y="750" width="172" height="98" rx="6" class="b-amber"/>
<text class="label-md" x="530" y="772" text-anchor="middle">PriceAndCover</text>
<text class="label-md" x="530" y="790" text-anchor="middle">Agent [planned]</text>
<text class="label-sm" x="530" y="808" text-anchor="middle">web search → price</text>
<text class="label-sm" x="530" y="824" text-anchor="middle">FLUX.1-schnell → cover</text>
<text class="label-sm" x="530" y="840" text-anchor="middle">LLM vision check</text>

<line x1="340" y1="858" x2="340" y2="878" class="arr" marker-end="url(#arrow)"/>

<!-- Aggregator -->
<rect x="120" y="878" width="440" height="40" rx="6" class="b-purple"/>
<text class="label-md" x="340" y="894" text-anchor="middle">ResultAggregator</text>
<text class="label-sm" x="340" y="910" text-anchor="middle">output guardrails · merge outputs · build BookMetadataResult</text>

<!-- Response arrow back up left side -->
<line x1="120" y1="898" x2="56" y2="898" class="arr" marker-end="url(#arrow)"/>
<line x1="56"  y1="898" x2="56"  y2="404" class="arr" marker-end="url(#arrow)"/>
<text class="label-xs" x="32" y="650" text-anchor="middle" transform="rotate(-90 32 650)">BookMetadataResult JSON response</text>

<!-- Planned agents inside AgenticApi zone -->
<rect x="56" y="928" width="568" height="84" rx="6" class="zone-border"/>
<text class="label-xs" x="64" y="942">planned agents</text>

<rect x="64"  y="948" width="262" height="56" rx="6" class="b-amber"/>
<text class="label-md" x="195" y="968" text-anchor="middle">PriceAdjustmentAgent [planned]</text>
<text class="label-sm" x="195" y="986" text-anchor="middle">Hangfire nightly · 21-day sales window</text>
<text class="label-sm" x="195" y="1000" text-anchor="middle">calls /internal/products via HTTP</text>

<rect x="342" y="948" width="270" height="56" rx="6" class="b-amber"/>
<text class="label-md" x="477" y="968" text-anchor="middle">AiSearchAgent [planned]</text>
<text class="label-sm" x="477" y="986" text-anchor="middle">tool: GetProductContext()</text>
<text class="label-sm" x="477" y="1000" text-anchor="middle">LLM reasons over SQL catalog · no vector DB</text>

<!-- ══ ZONE 4 — EXTERNAL SERVICES ══════════════════════════ -->
<line x1="340" y1="1042" x2="340" y2="1066" class="arr-main" marker-end="url(#arrow)"/>
<rect x="40" y="1068" width="600" height="78" rx="10" class="zone-border"/>
<text class="label-xs" x="54" y="1084">external services</text>

<rect x="54"  y="1090" width="96"  height="44" rx="6" class="b-coral"/>
<text class="label-md" x="102" y="1108" text-anchor="middle">Gemini</text>
<text class="label-sm" x="102" y="1124" text-anchor="middle">2.0 Flash · free</text>

<rect x="162" y="1090" width="96"  height="44" rx="6" class="b-coral"/>
<text class="label-md" x="210" y="1108" text-anchor="middle">Pinecone</text>
<text class="label-sm" x="210" y="1124" text-anchor="middle">vector DB · free</text>

<rect x="270" y="1090" width="100" height="44" rx="6" class="b-coral"/>
<text class="label-md" x="320" y="1108" text-anchor="middle">HuggingFace</text>
<text class="label-sm" x="320" y="1124" text-anchor="middle">FLUX.1-schnell</text>

<rect x="382" y="1090" width="108" height="44" rx="6" class="b-coral"/>
<text class="label-md" x="436" y="1108" text-anchor="middle">Azure Blob</text>
<text class="label-sm" x="436" y="1124" text-anchor="middle">temp covers</text>

<rect x="502" y="1090" width="126" height="44" rx="6" class="b-coral"/>
<text class="label-md" x="565" y="1108" text-anchor="middle">Bing Search</text>
<text class="label-sm" x="565" y="1124" text-anchor="middle">price research</text>

<!-- Connectors agents → external -->
<line x1="150" y1="848" x2="102" y2="1088" class="arr" marker-end="url(#arrow)"/>
<line x1="340" y1="918" x2="210" y2="1088" class="arr" marker-end="url(#arrow)"/>
<line x1="530" y1="848" x2="320" y2="1088" class="arr" marker-end="url(#arrow)"/>
<line x1="530" y1="830" x2="436" y2="1088" class="arr" marker-end="url(#arrow)"/>
<line x1="530" y1="808" x2="565" y2="1088" class="arr" marker-end="url(#arrow)"/>

<!-- ══ ZONE 5 — BACKGROUND JOBS ════════════════════════════ -->
<line x1="340" y1="1146" x2="340" y2="1166" class="arr-main" marker-end="url(#arrow)"/>
<rect x="40" y="1168" width="600" height="60" rx="10" class="zone-border"/>
<text class="label-xs" x="54" y="1184">background jobs [planned]</text>
<rect x="54" y="1190" width="572" height="30" rx="5" class="b-gray"/>
<text class="label-md" x="175" y="1208" text-anchor="middle">Hangfire</text>
<text class="label-sm" x="430" y="1208" text-anchor="middle">nightly price adjustment · hourly temp cover cleanup · SQL Server job store</text>

<!-- Hangfire trigger connector -->
<line x1="195" y1="1004" x2="195" y2="1188" class="arr" marker-end="url(#arrow)"/>

<!-- ══ ZONE 6 — CI/CD ════════════════════════════════════════ -->
<line x1="340" y1="1228" x2="340" y2="1248" class="arr-main" marker-end="url(#arrow)"/>
<rect x="40" y="1250" width="600" height="96" rx="10" class="zone-border"/>
<text class="label-xs" x="54" y="1266">CI/CD + Azure deployment [planned]</text>

<rect x="54"  y="1272" width="162" height="62" rx="6" class="b-blue"/>
<text class="label-md" x="135" y="1295" text-anchor="middle">GitHub Actions</text>
<text class="label-sm" x="135" y="1313" text-anchor="middle">build · test</text>
<text class="label-sm" x="135" y="1327" text-anchor="middle">push Docker image</text>
<line x1="216" y1="1303" x2="238" y2="1303" class="arr" marker-end="url(#arrow)"/>

<rect x="240" y="1272" width="162" height="62" rx="6" class="b-blue"/>
<text class="label-md" x="321" y="1292" text-anchor="middle">Azure Container</text>
<text class="label-md" x="321" y="1308" text-anchor="middle">Registry</text>
<text class="label-sm" x="321" y="1326" text-anchor="middle">Docker image store</text>
<line x1="402" y1="1303" x2="424" y2="1303" class="arr" marker-end="url(#arrow)"/>

<rect x="426" y="1272" width="202" height="62" rx="6" class="b-blue"/>
<text class="label-md" x="527" y="1292" text-anchor="middle">Azure App Service ×2</text>
<text class="label-sm" x="527" y="1310" text-anchor="middle">WebLibrary (MVC)</text>
<text class="label-sm" x="527" y="1326" text-anchor="middle">WebLibrary.AgenticApi</text>

<!-- ══ WATERMARK ══════════════════════════════════════════════ -->
<text class="label-xs" x="340" y="1380" text-anchor="middle">— planned architecture · Harsh Patel · github.com/Harsh2292 —</text>

</svg>
